<svg xmlns="http://www.w3.org/2000/svg" viewBox="0 0 32 32" role="img" aria-label="Spottedcat pixel logo" shape-rendering="crispEdges">
  <title>Spottedcat pixel logo</title>
  <g>
    <rect x="10" y="5" width="4" height="5" fill="#291c18"/>
    <rect x="18" y="5" width="4" height="5" fill="#291c18"/>
    <rect x="11" y="6" width="2" height="2" fill="#a65c2e"/>
    <rect x="19" y="6" width="2" height="2" fill="#a65c2e"/>
    <rect x="11" y="4" width="1" height="1" fill="#291c18"/>
    <rect x="20" y="4" width="1" height="1" fill="#291c18"/>
    <rect x="10" y="3" width="1" height="1" fill="#291c18"/>
    <rect x="21" y="3" width="1" height="1" fill="#291c18"/>

    <rect x="7" y="10" width="18" height="11" fill="#291c18"/>
    <rect x="6" y="12" width="2" height="7" fill="#291c18"/>
    <rect x="24" y="12" width="2" height="7" fill="#291c18"/>
    <rect x="8" y="11" width="16" height="11" fill="#cd763d"/>
    <rect x="8" y="20" width="3" height="2" fill="#cd763d"/>
    <rect x="21" y="20" width="3" height="2" fill="#cd763d"/>
    <rect x="9" y="12" width="14" height="9" fill="#e79860"/>
    <rect x="10" y="20" width="12" height="1" fill="#e79860"/>

    <rect x="11" y="17" width="10" height="5" fill="#f3dbc2"/>
    <rect x="12" y="16" width="8" height="2" fill="#f3dbc2"/>
    <rect x="13" y="15" width="2" height="1" fill="#f3dbc2"/>
    <rect x="17" y="15" width="2" height="1" fill="#f3dbc2"/>

    <rect x="10" y="13" width="3" height="2" fill="#291c18"/>
    <rect x="19" y="13" width="3" height="2" fill="#291c18"/>
    <rect x="11" y="13" width="2" height="2" fill="#4ff1d9"/>
    <rect x="19" y="13" width="2" height="2" fill="#4ff1d9"/>
    <rect x="12" y="13" width="1" height="1" fill="#e0fff6"/>
    <rect x="20" y="13" width="1" height="1" fill="#e0fff6"/>

    <rect x="15" y="17" width="2" height="2" fill="#4a2822"/>
    <rect x="14" y="19" width="1" height="1" fill="#4a2822"/>
    <rect x="17" y="19" width="1" height="1" fill="#4a2822"/>
    <rect x="13" y="18" width="1" height="1" fill="#4a2822"/>
    <rect x="18" y="18" width="1" height="1" fill="#4a2822"/>

    <rect x="12" y="10" width="2" height="2" fill="#6b3d27"/>
    <rect x="18" y="10" width="2" height="2" fill="#6b3d27"/>
    <rect x="15" y="11" width="2" height="2" fill="#6b3d27"/>
    <rect x="9" y="16" width="2" height="2" fill="#6b3d27"/>
    <rect x="21" y="16" width="2" height="2" fill="#6b3d27"/>
    <rect x="11" y="12" width="1" height="1" fill="#6b3d27"/>
    <rect x="20" y="12" width="1" height="1" fill="#6b3d27"/>
    <rect x="14" y="10" width="1" height="1" fill="#6b3d27"/>
    <rect x="17" y="10" width="1" height="1" fill="#6b3d27"/>

    <rect x="9" y="8" width="1" height="4" fill="#291c18"/>
    <rect x="22" y="8" width="1" height="4" fill="#291c18"/>
    <rect x="8" y="10" width="1" height="1" fill="#291c18"/>
    <rect x="23" y="10" width="1" height="1" fill="#291c18"/>
  </g>
</svg>
